<?xml version="1.0" standalone="no"?>
<!DOCTYPE svg PUBLIC "-//W3C//DTD SVG 20010904//EN"
 "http://www.w3.org/TR/2001/REC-SVG-20010904/DTD/svg10.dtd">
<svg version="1.0" xmlns="http://www.w3.org/2000/svg"
 width="387.000000pt" height="109.000000pt" viewBox="0 0 387.000000 109.000000"
 preserveAspectRatio="xMidYMid meet">

<g transform="translate(0.000000,109.000000) scale(0.100000,-0.100000)"
fill="#000000" stroke="none">
<path d="M398 939 c-54 -15 -121 -79 -147 -139 -21 -48 -22 -64 -19 -233 4
-224 9 -237 147 -380 l95 -98 93 93 c52 51 105 110 119 130 l26 38 39 -34 c76
-64 197 -76 293 -27 32 16 59 24 63 19 3 -6 24 -19 47 -29 54 -25 138 -24 194
1 44 20 44 20 69 0 22 -17 41 -20 143 -20 100 0 121 3 141 19 22 18 24 18 63
0 36 -16 69 -19 280 -19 204 0 242 2 257 16 16 14 20 14 48 0 46 -24 146 -21
200 7 l44 23 45 -23 c42 -21 58 -23 225 -23 205 0 224 6 266 80 l23 42 25 -41
c14 -24 40 -49 63 -61 46 -23 117 -26 146 -6 17 12 22 12 39 0 13 -10 47 -14
107 -14 81 0 91 2 113 25 24 23 25 29 25 160 0 162 -10 210 -57 265 -61 71
-97 83 -255 84 -94 1 -141 -3 -149 -11 -9 -9 -19 -9 -42 4 -21 11 -42 13 -71
8 -53 -9 -73 -9 -117 0 -29 6 -40 3 -65 -18 -26 -22 -32 -23 -48 -11 -56 41
-180 37 -239 -7 -24 -17 -34 -20 -46 -11 -93 66 -237 58 -305 -17 -25 -27 -36
-13 -36 46 0 104 -34 123 -213 123 -130 0 -137 -1 -165 -25 -17 -14 -33 -39
-37 -55 -4 -17 -12 -30 -18 -30 -7 0 -22 -3 -34 -6 -17 -5 -23 -2 -23 9 0 27
-60 86 -99 98 -21 6 -86 9 -153 7 -132 -3 -154 -14 -164 -78 l-6 -37 -39 8
c-43 10 -75 6 -131 -18 -36 -15 -38 -15 -67 10 -50 42 -112 60 -184 55 -68 -6
-106 -21 -150 -62 -15 -14 -29 -26 -31 -26 -2 0 -8 18 -15 41 -14 47 -70 107
-125 133 -46 22 -137 29 -188 15z m174 -137 l22 -22 -114 0 -115 1 29 25 c27
23 36 26 93 22 48 -3 69 -9 85 -26z m926 -18 c22 -6 22 -7 22 -205 l0 -199
-35 0 -35 0 0 198 c0 109 3 202 7 205 8 8 12 8 41 1z m146 -10 c11 -29 6 -53
-14 -64 -42 -22 -82 34 -48 68 17 17 55 15 62 -4z m366 -194 l0 -200 -35 0
c-19 0 -35 4 -35 9 0 6 -12 6 -31 -1 -17 -6 -53 -8 -82 -5 -42 4 -56 10 -83
40 -107 116 4 300 147 244 l39 -15 0 48 c0 69 6 80 46 80 l34 0 0 -200z m120
35 l0 -164 73 -3 72 -3 0 -30 0 -30 -102 -3 -103 -3 0 201 0 200 30 0 30 0 0
-165z m-1520 100 l0 -26 -127 3 c-124 3 -128 4 -131 26 -3 22 -3 22 127 22
l131 0 0 -25z m409 -14 l32 -23 -22 -24 c-20 -21 -24 -22 -43 -9 -30 22 -103
20 -115 -3 -13 -24 -2 -39 34 -47 89 -20 126 -37 141 -67 29 -57 -1 -121 -69
-147 -53 -20 -128 -6 -173 33 -26 22 -26 23 -10 49 l18 26 27 -20 c35 -26 105
-36 126 -19 38 32 8 60 -79 75 -48 8 -96 53 -96 90 0 40 25 80 62 99 45 23
125 17 167 -13z m305 -44 c47 -27 76 -77 76 -132 0 -162 -237 -203 -295 -51
-53 138 90 257 219 183z m1184 3 c42 -26 72 -76 72 -122 l0 -37 -122 -3 -123
-3 33 -34 c29 -30 37 -33 73 -28 22 3 49 13 58 21 17 15 20 15 41 -2 l22 -18
-32 -27 c-26 -22 -41 -27 -86 -27 -99 0 -154 53 -154 146 0 87 63 154 145 154
22 0 54 -9 73 -20z m312 5 c53 -27 60 -49 60 -172 l0 -113 -30 0 c-20 0 -30 5
-30 15 0 19 -9 19 -34 0 -24 -18 -85 -20 -120 -4 -31 15 -60 72 -52 105 13 50
121 83 176 54 26 -14 34 3 18 37 -12 25 -18 28 -63 27 -28 -1 -59 -4 -70 -8
-11 -3 -27 -2 -35 3 -12 8 -11 13 5 32 11 12 29 25 40 30 33 13 104 10 135 -6z
m358 -5 c39 -24 41 -41 4 -62 -27 -16 -29 -16 -49 4 -26 26 -74 17 -103 -19
-17 -21 -20 -41 -20 -114 l0 -89 -35 0 -35 0 0 145 0 145 30 0 c23 0 30 -4 30
-20 0 -26 6 -25 42 5 37 31 90 33 136 5z m152 0 c0 -25 4 -25 40 1 42 32 114
22 152 -20 27 -30 28 -35 28 -146 l0 -115 -35 0 -35 0 0 100 c0 87 -3 103 -20
120 -27 27 -66 25 -95 -5 -23 -22 -25 -32 -25 -120 l0 -95 -29 0 c-17 0 -31 6
-35 16 -8 21 -8 269 1 277 3 4 17 7 30 7 16 0 23 -6 23 -20z m-1680 -135 l0
-145 -35 0 -35 0 0 145 0 145 35 0 35 0 0 -145z m-1270 22 c0 -63 3 -117 7
-120 3 -4 12 -2 20 5 10 8 17 8 25 0 7 -7 16 -12 20 -12 4 0 8 54 8 120 0 113
1 120 20 120 19 0 20 -7 20 -120 0 -110 7 -139 25 -110 4 6 15 8 26 5 18 -6
19 0 19 109 0 109 1 116 20 116 19 0 20 -7 20 -121 l0 -121 -61 -84 c-33 -46
-65 -84 -70 -84 -9 0 -106 127 -127 167 -13 23 -17 225 -5 236 3 4 12 7 20 7
10 0 13 -26 13 -113z"/>
<path d="M1813 598 c-34 -16 -48 -69 -29 -106 17 -33 34 -42 77 -42 76 0 97
110 28 145 -32 17 -46 18 -76 3z"/>
<path d="M1192 587 c-14 -15 -22 -36 -22 -58 0 -40 7 -52 37 -68 58 -30 113 2
113 67 0 73 -81 110 -128 59z"/>
<path d="M2400 619 c-24 -9 -59 -46 -60 -61 0 -5 41 -8 90 -8 50 0 90 4 90 9
0 18 -45 59 -70 64 -14 3 -36 1 -50 -4z"/>
<path d="M2710 507 c-14 -7 -26 -22 -28 -35 -6 -43 74 -55 112 -16 24 23 20
33 -19 50 -41 17 -34 17 -65 1z"/>
</g>
</svg>
